<?xml version="1.0" encoding="utf-8"?>
<!-- Generator: Adobe Illustrator 22.1.0, SVG Export Plug-In . SVG Version: 6.00 Build 0)  -->
<svg version="1.1" id="Layer_1" xmlns="http://www.w3.org/2000/svg" xmlns:xlink="http://www.w3.org/1999/xlink" x="0px" y="0px"
	 viewBox="0 0 128 128" style="enable-background:new 0 0 128 128;" xml:space="preserve">
<style type="text/css">
	.st0{fill:#FF0000;}
	.st1{fill:#FFFFFF;}
</style>
<rect x="-335.8" y="-128" class="st0" width="256.3" height="256.3"/>
<g>
	<path class="st1" d="M-109-7v65.2h-47.3V1.1c0-14.2-5.2-19.7-12.8-19.7c-8.4,0-14.8,5.6-14.8,20.9v55.8h-47.3V1.1
		c0-14.2-4.8-19.7-12.8-19.7c-8.4,0-14.8,5.6-14.8,20.9v55.8H-306V-56.2h45v10.7c8.6-8.6,19.9-12.8,32.4-12.8
		c14.8,0,27.8,5.4,35.8,17.4c9.2-11.1,22.6-17.4,38.3-17.4C-128.7-58.2-109-43-109-7z"/>
</g>
<rect x="-0.2" y="0.2" class="st0" width="128.2" height="128.2"/>
<g>
	<path class="st1" d="M113.3,60.7v32.6H89.6V64.7c0-7.1-2.6-9.8-6.4-9.8c-4.2,0-7.4,2.8-7.4,10.5v27.9H52.2V64.7
		c0-7.1-2.4-9.8-6.4-9.8c-4.2,0-7.4,2.8-7.4,10.5v27.9H14.8V36.1h22.5v5.3c4.3-4.3,9.9-6.4,16.2-6.4c7.4,0,13.9,2.7,17.9,8.7
		c4.6-5.5,11.3-8.7,19.1-8.7C103.4,35.1,113.3,42.7,113.3,60.7z"/>
</g>
</svg>
